<svg width="732" height="334" viewBox="0 0 732 334" fill="none" xmlns="http://www.w3.org/2000/svg">
<rect width="725" height="333.777" fill="white"/>
<path d="M567 127.5C576.946 127.5 586.484 131.451 593.516 138.484C600.549 145.516 604.5 155.054 604.5 165" stroke="#FF0000" stroke-width="16" stroke-linecap="square"/>
<path d="M567 97.5C584.902 97.5 602.071 104.611 614.73 117.27C627.389 129.929 634.5 147.098 634.5 165M567 67.5C592.859 67.5 617.658 77.7723 635.943 96.0571C654.228 114.342 664.5 139.141 664.5 165" stroke="#FF0000" stroke-width="16" stroke-linecap="square" stroke-linejoin="round"/>
<path d="M303.328 181.562L281.688 185.469C280.958 181.146 279.292 177.891 276.688 175.703C274.135 173.516 270.802 172.422 266.688 172.422C261.219 172.422 256.844 174.323 253.562 178.125C250.333 181.875 248.719 188.177 248.719 197.031C248.719 206.875 250.359 213.828 253.641 217.891C256.974 221.953 261.427 223.984 267 223.984C271.167 223.984 274.578 222.812 277.234 220.469C279.891 218.073 281.766 213.984 282.859 208.203L304.422 211.875C302.182 221.771 297.885 229.245 291.531 234.297C285.177 239.349 276.661 241.875 265.984 241.875C253.849 241.875 244.161 238.047 236.922 230.391C229.734 222.734 226.141 212.135 226.141 198.594C226.141 184.896 229.76 174.245 237 166.641C244.24 158.984 254.031 155.156 266.375 155.156C276.479 155.156 284.5 157.344 290.438 161.719C296.427 166.042 300.724 172.656 303.328 181.562Z" fill="white"/>
<path d="M312.312 216.328L334.344 212.969C335.281 217.24 337.182 220.495 340.047 222.734C342.911 224.922 346.922 226.016 352.078 226.016C357.755 226.016 362.026 224.974 364.891 222.891C366.818 221.432 367.781 219.479 367.781 217.031C367.781 215.365 367.26 213.984 366.219 212.891C365.125 211.849 362.677 210.885 358.875 210C341.167 206.094 329.943 202.526 325.203 199.297C318.641 194.818 315.359 188.594 315.359 180.625C315.359 173.438 318.198 167.396 323.875 162.5C329.552 157.604 338.354 155.156 350.281 155.156C361.635 155.156 370.073 157.005 375.594 160.703C381.115 164.401 384.917 169.87 387 177.109L366.297 180.938C365.411 177.708 363.719 175.234 361.219 173.516C358.771 171.797 355.255 170.938 350.672 170.938C344.891 170.938 340.75 171.745 338.25 173.359C336.583 174.505 335.75 175.99 335.75 177.812C335.75 179.375 336.479 180.703 337.938 181.797C339.917 183.255 346.74 185.312 358.406 187.969C370.125 190.625 378.302 193.88 382.938 197.734C387.521 201.641 389.812 207.083 389.812 214.062C389.812 221.667 386.635 228.203 380.281 233.672C373.927 239.141 364.526 241.875 352.078 241.875C340.776 241.875 331.818 239.583 325.203 235C318.641 230.417 314.344 224.193 312.312 216.328Z" fill="white"/>
<path d="M409.109 145.781V125.469H431.062V145.781H409.109ZM409.109 240V157.031H431.062V240H409.109Z" fill="white"/>
<path d="M444.031 157.031H456.219V150.781C456.219 143.802 456.948 138.594 458.406 135.156C459.917 131.719 462.651 128.932 466.609 126.797C470.62 124.609 475.672 123.516 481.766 123.516C488.016 123.516 494.135 124.453 500.125 126.328L497.156 141.641C493.667 140.807 490.307 140.391 487.078 140.391C483.901 140.391 481.609 141.146 480.203 142.656C478.849 144.115 478.172 146.953 478.172 151.172V157.031H494.578V174.297H478.172V240H456.219V174.297H444.031V157.031Z" fill="white"/>
<path d="M496.531 157.031H519.891L539.734 215.938L559.109 157.031H581.844L552.547 236.875L547.312 251.328C545.385 256.172 543.536 259.87 541.766 262.422C540.047 264.974 538.042 267.031 535.75 268.594C533.51 270.208 530.724 271.458 527.391 272.344C524.109 273.229 520.385 273.672 516.219 273.672C512 273.672 507.859 273.229 503.797 272.344L501.844 255.156C505.281 255.833 508.38 256.172 511.141 256.172C516.245 256.172 520.021 254.661 522.469 251.641C524.917 248.672 526.792 244.87 528.094 240.234L496.531 157.031Z" fill="white"/>
<path d="M226.109 238.531H200.953L190.953 212.516H145.172L119 278.531H94L155.797 124H180.25L226.109 238.531ZM183.531 193.219L167.75 150.719L152.281 193.219H183.531Z" fill="#FF0000"/>
</svg>
