<svg width="646" height="288" viewBox="0 0 646 288" fill="none" xmlns="http://www.w3.org/2000/svg">
<g clip-path="url(#clip0_18_2)">
<path d="M510 109.5C519.946 109.5 529.484 113.451 536.516 120.484C543.549 127.516 547.5 137.054 547.5 147" stroke="#FF0000" stroke-width="16" stroke-linecap="square"/>
<path d="M510 79.5C527.902 79.5 545.071 86.6112 557.73 99.2699C570.389 111.929 577.5 129.098 577.5 147M510 49.5C535.859 49.5 560.658 59.7723 578.943 78.0571C597.228 96.3419 607.5 121.141 607.5 147" stroke="#FF0000" stroke-width="16" stroke-linecap="square" stroke-linejoin="round"/>
<path d="M246.328 163.562L224.688 167.469C223.958 163.146 222.292 159.891 219.688 157.703C217.135 155.516 213.802 154.422 209.688 154.422C204.219 154.422 199.844 156.323 196.562 160.125C193.333 163.875 191.719 170.177 191.719 179.031C191.719 188.875 193.359 195.828 196.641 199.891C199.974 203.953 204.427 205.984 210 205.984C214.167 205.984 217.578 204.812 220.234 202.469C222.891 200.073 224.766 195.984 225.859 190.203L247.422 193.875C245.182 203.771 240.885 211.245 234.531 216.297C228.177 221.349 219.661 223.875 208.984 223.875C196.849 223.875 187.161 220.047 179.922 212.391C172.734 204.734 169.141 194.135 169.141 180.594C169.141 166.896 172.76 156.245 180 148.641C187.24 140.984 197.031 137.156 209.375 137.156C219.479 137.156 227.5 139.344 233.438 143.719C239.427 148.042 243.724 154.656 246.328 163.562Z" fill="white"/>
<path d="M255.312 198.328L277.344 194.969C278.281 199.24 280.182 202.495 283.047 204.734C285.911 206.922 289.922 208.016 295.078 208.016C300.755 208.016 305.026 206.974 307.891 204.891C309.818 203.432 310.781 201.479 310.781 199.031C310.781 197.365 310.26 195.984 309.219 194.891C308.125 193.849 305.677 192.885 301.875 192C284.167 188.094 272.943 184.526 268.203 181.297C261.641 176.818 258.359 170.594 258.359 162.625C258.359 155.438 261.198 149.396 266.875 144.5C272.552 139.604 281.354 137.156 293.281 137.156C304.635 137.156 313.073 139.005 318.594 142.703C324.115 146.401 327.917 151.87 330 159.109L309.297 162.938C308.411 159.708 306.719 157.234 304.219 155.516C301.771 153.797 298.255 152.938 293.672 152.938C287.891 152.938 283.75 153.745 281.25 155.359C279.583 156.505 278.75 157.99 278.75 159.812C278.75 161.375 279.479 162.703 280.938 163.797C282.917 165.255 289.74 167.312 301.406 169.969C313.125 172.625 321.302 175.88 325.938 179.734C330.521 183.641 332.812 189.083 332.812 196.062C332.812 203.667 329.635 210.203 323.281 215.672C316.927 221.141 307.526 223.875 295.078 223.875C283.776 223.875 274.818 221.583 268.203 217C261.641 212.417 257.344 206.193 255.312 198.328Z" fill="white"/>
<path d="M352.109 127.781V107.469H374.062V127.781H352.109ZM352.109 222V139.031H374.062V222H352.109Z" fill="white"/>
<path d="M387.031 139.031H399.219V132.781C399.219 125.802 399.948 120.594 401.406 117.156C402.917 113.719 405.651 110.932 409.609 108.797C413.62 106.609 418.672 105.516 424.766 105.516C431.016 105.516 437.135 106.453 443.125 108.328L440.156 123.641C436.667 122.807 433.307 122.391 430.078 122.391C426.901 122.391 424.609 123.146 423.203 124.656C421.849 126.115 421.172 128.953 421.172 133.172V139.031H437.578V156.297H421.172V222H399.219V156.297H387.031V139.031Z" fill="white"/>
<path d="M439.531 139.031H462.891L482.734 197.938L502.109 139.031H524.844L495.547 218.875L490.312 233.328C488.385 238.172 486.536 241.87 484.766 244.422C483.047 246.974 481.042 249.031 478.75 250.594C476.51 252.208 473.724 253.458 470.391 254.344C467.109 255.229 463.385 255.672 459.219 255.672C455 255.672 450.859 255.229 446.797 254.344L444.844 237.156C448.281 237.833 451.38 238.172 454.141 238.172C459.245 238.172 463.021 236.661 465.469 233.641C467.917 230.672 469.792 226.87 471.094 222.234L439.531 139.031Z" fill="white"/>
<path d="M169.109 220.531H143.953L133.953 194.516H88.1719L62 260.531H37L98.7969 106H123.25L169.109 220.531ZM126.531 175.219L110.75 132.719L95.2812 175.219H126.531Z" fill="#FF0000"/>
</g>
<defs>
<clipPath id="clip0_18_2">
<rect width="646" height="288" fill="white"/>
</clipPath>
</defs>
</svg>
